<svg xmlns="http://www.w3.org/2000/svg" viewBox="0 0 76 76" fill="none" stroke="#bdb2a3" stroke-linecap="round" stroke-linejoin="round">
  <!-- Background box -->
  <rect x="2" y="2" width="72" height="72" rx="6" stroke-width="3.5" fill="black"/>
  <!-- Steam wisps -->
  <path d="M22 16 Q20 12 22 8" stroke-width="3.5"/>
  <path d="M32 16 Q30 12 32 8" stroke-width="3.5"/>
  <path d="M42 16 Q40 12 42 8" stroke-width="3.5"/>
  <!-- Espresso cup body: wide top, S-curve sides, narrow base -->
  <path d="M11 24 C 9,36 23,48 25,56 Q 34,61 43,56 C 45,48 59,36 57,24 Z"
        stroke-width="3.5" fill="black"/>
  <!-- Saucer -->
  <path d="M18 60 Q34 67 50 60" stroke-width="3.5"/>
  <!-- Handle (small loop) -->
  <path d="M57 32 Q66 32 66 40 Q66 48 57 48" stroke-width="3.5"/>
  <!-- Rim -->
  <line x1="11" y1="24" x2="57" y2="24" stroke-width="3.5"/>
</svg>
