<svg xmlns="http://www.w3.org/2000/svg" viewBox="0 0 76 76" fill="none" stroke="#bdb2a3" stroke-linecap="round" stroke-linejoin="round">
  <!-- Background box -->
  <rect x="1" y="1" width="74" height="74" rx="6" stroke-width="1.5" fill="black"/>
  <!-- Steam wisps -->
  <path d="M26 16 Q24 12 26 8" stroke-width="2"/>
  <path d="M36 16 Q34 12 36 8" stroke-width="2"/>
  <path d="M46 16 Q44 12 46 8" stroke-width="2"/>
  <!-- Espresso cup body: wide top, S-curve sides, narrow base -->
  <path d="M15 24 C 13,36 27,48 29,56 Q 38,61 47,56 C 49,48 63,36 61,24 Z"
        stroke-width="2" fill="black"/>
  <!-- Saucer -->
  <path d="M22 60 Q38 67 54 60" stroke-width="2"/>
  <!-- Handle (small loop) -->
  <path d="M61 32 Q70 32 70 40 Q70 48 61 48" stroke-width="2"/>
  <!-- Rim -->
  <line x1="15" y1="24" x2="61" y2="24" stroke-width="2"/>
</svg>
