<?xml version="1.0" encoding="UTF-8"?>
<svg id="Layer_2" data-name="Layer 2" xmlns="http://www.w3.org/2000/svg" viewBox="0 0 560 960">
  <defs>
    <style>
      .cls-1 {
        font-family: Didot, Didot;
        font-size: 127px;
      }

      .cls-2 {
        stroke-width: 1.6px;
      }

      .cls-2, .cls-3 {
        stroke: #000;
        stroke-miterlimit: 10;
      }

      .cls-3 {
        fill: none;
        stroke-width: 5.59px;
      }
    </style>
  </defs>
  <g>
    <path d="M268.01,131.78c8.61-2.48,18.83-4.09,27.65-6.15,12.15-2.85,25.78-4.76,36.52-10.83,11.72-6.63,22.91-13.77,34.8-20.62,1.21.2,2.21.68,3.25,1.32,12.77,7.79,21.87,23.44,23.5,38.15.27,2.39.44,13.47-1.32,14.78-2.66,1.98-8.53,3.99-11.75,5.8-5.77,3.24-12.76,8.98-16.69,14.32-7.65,10.41-9.22,24.6-14.29,36.25-5.05,11.59-14.93,23.62-25.05,30.89-7.77,5.58-19.72,8.33-28.36,12.95-1.15,0-2.31.11-3.46-.07-.76-.12-3.57-1.37-3.77-1.34-1,.16-3.09,1.62-4.36,2.08-2.77.99-6.02.13-8.48-1.22-.85-.47-1.11-1.79-2.34-.89-1.31.96-1.71,1.88-3.52,2.66-4.71,2.02-10.76-.54-13.39-4.74-5.78-9.22-10.86-19.66-16.23-29.39-2.97-5.38-8.09-12.08-8.72-18.31-.33-3.26.31-6.56.78-9.71.03-.21-.23-.44-.2-.61,0-.05.31-.09.33-.25.16-.97.2-2.33.41-3.3,3.19-14.74,14.17-37.69,26.09-47.12,2.87-2.27,4.97-3.61,8.61-4.66ZM269.47,137.24c-6.89,2.02-12.03,8.26-15.98,13.96-7.01,10.13-17.44,33.68-15.9,45.87.4,3.2,2.43,5.72,3.9,8.41,5.8,10.67,11.69,21.49,17.79,32,1.44,2.49,2.51,5.9,5.33,7.05,2.44,1,4.68.17,5.97-2.13.17-.3.66-2.01.59-2.2-.04-.11-.27.09-.32-.04-.66-1.72-1.58-3.4-2.45-5.02-5.3-9.85-11.09-19.52-16.33-29.66-2.16-4.18-3.23-6.23-.77-10.83,5.34-10,24.64-23.86,22.13-36.33-.36-1.79-2.51-5.33-.56-6.88,2.31-1.84,4.2-.38,5.09,1.92,3.48,8.95-.8,17.95-6.13,25.11-3.11,4.18-15.98,17.05-16.2,21.06-.11,1.93,3.18,6.5,4.14,8.28,5.42,10.04,10.75,19.88,16.28,29.54,1.72,3,3.28,8.58,7.81,6.23,1.86-.96.5-1.43.23-3.11-.51-3.23.87-6.68,2.44-9.43-2.24-7.03-4.73-13.94-6.85-20.8-2.98-9.62-4.86-14.33,1.96-23.04,13.71-17.5,39.65-18.15,36.8,9.45-3,8.66-1.02,19.35-9.97,25.04-6.12,3.89-11.61,4.83-16.26,11.16-2.81,3.83-4.42,8.86,1.74,10.23,8.42-4,18.61-6.97,26.73-11.35,5.12-2.76,14.56-13.54,17.98-18.58,13.03-19.25,10.25-42.63,30.72-58.13,3.4-2.57,8.24-5.62,11.94-7.62,1.64-.88,5.26-1.9,6.5-3.1.57-.55.36-4.43.35-5.36-.05-13.89-6.23-27.28-17.31-36.15-.36-.29-3.15-2.34-3.36-2.32-1.09.12-1.99,1.19-2.84,1.67-11.09,6.28-21.78,13.54-33.11,19.44-8.89,4.63-23.81,6.96-34.06,9.36-9.01,2.11-19.29,3.72-28,6.28ZM300.23,180.74c-6.44,1.88-17.53,10.49-17.77,17.89-.11,3.37,5.44,19.22,6.87,23.35.2.57,1.33,3.81,1.73,3.8.2,0,2.57-2.37,2.88-2.71,8.42-5.53,13.97-4.06,16.29-15.08,1.3-6.18,4.1-15.29,2-21.25-1.85-5.27-6.63-7.57-12-6Z"/>
    <path class="cls-3" d="M373.59,465.32c-6.92,10.69-13.04,21.68-15.31,33.45-3.67,18.99,13.29,68.62,10.16,68.83-40.05,17.78-127.27,11.92-127.28.8,0,0-5.01-17.95-5.93-23.65-1.31-8.08-6.61-22.98-13.61-27.69-3.89-2.62-34.03-.38-43.52-2.17-7.78-1.47-14.3-5.15-14.98-13.75-.42-5.24.51-10.89,1.16-15.99.24-1.86-6.97-10.51-5.34-15.32.32-.95,3.69-4.38,3.37-4.8-2.83-.99-6.06-.99-6.41-4.57-.75-7.6,8.2-13.47,6.39-21.49-8.31-10.76-20.87-3.39-20.94-14.37-.05-7.22,20.62-32.9,21.75-52.77.75-13.17-3.67-23.33-1.62-37.54,5.6-38.93,37.24-71.24,75.68-80.76,32.14-7.96,73.17-7.93,104.17,4.91,27.04,11.2,52.14,36.96,61.4,64.89,10.64,32.1,6.32,81.06-9.33,110.89-.98,1.86-2.02,3.71-3.12,5.57"/>
    <g>
      <path class="cls-2" d="M382.39,376.13c-.11,1.2,11.9,12.45,13.41,14.44,2.04,4.39-2.77,4.87-5.84,5.46-5.79,1.11-21.15.1-27.46-.58-2.53-.27-12.09-2.6-13.69-2.13s-9.51,5.76-10.34,7.15c-.97,1.62,3.34,4.28,4.51,5.46,5.65,5.7,11.49,12.29,17.39,17.63,14.99,13.57,37.8,15.74,56.12,22.71,3.05,1.31,2.55,7.05.4,8.87-1.57,1.34-8.14,4.42-8.71,5.22-1.01,1.41-.67,15.65-1.43,18.84-.4,1.69-2.23,5.51-4.17,5.6-.97.05-8.39-4.26-9.82-5.08-11.23-6.48-21.59-14.52-32.6-21.35-6.81-4.22-11.21-6.37-19.27-7.13-7.03-.66-19.07-.07-25.51,2.73-3.59,1.56-1.87,2.65-1.63,5.66.29,3.57.94,6.05-1.36,9.06-.89,1.16-4.43,3.89-3.95,5.01l17.83,22.74c4.18,5.2,9.41,9.63,13.79,14.63,2.65,3.02,3.83,4.25-.89,6.21-8.13,3.38-14.14,1.44-21.39-2.47-11.42-6.15-23.47-13.91-34.61-20.76-23.09-14.17-58.6-31.44-63.53-60.56-1.09-6.45,1.2-12.35,5.77-16.89-1.57-2.91-3.11-5.81-4.11-8.98-2.66-8.44-1.92-15.1-8.23-22.64-3.14-3.75-8.49-6.02-11.57-10.3-1.31-1.82-2.58-5.69-3.55-6.72-.6-.63-7.18-5.16-8.31-5.83-1.33-.8-5.09-2-5.82-2.71-3.56-3.46,9.58-6.38,11.48-6.78.8-.17,3.71-.2,4.01-.42.73-.51,2.36-4.44,3.65-5.59,7.82-7.02,29.1-8.04,38.41-3.42,4.96,2.46,8.73,7.86,13.12,10.52,1.77,1.08,10.39,3.8,12.21,2.88.7-.35.42-5.88.53-7.03,1.02-10.02,3.46-19.23,14.45-22.24,17.4-4.77,56.07,16.39,71.7,24.86,5.91,3.2,25.59,13.25,29.28,17.14,4.44,4.68-.17,5.52-.29,6.77ZM381.19,372.91c.08-.37-2.47-2.42-2.98-2.78-14.2-10.29-40.4-23.32-56.74-30.57-19.88-8.82-50.33-20.99-51.13,12.9-.02.67-.05,4.63.03,4.85.24.69,5.32,2.54,6.43,3.1,8.48,4.32,17.89,10.05,25.61,15.62,1.33.96,6.22,4.24,6.87,5.19,1.35,1.97-.68,3.11-2.88,1.94-5.66-3-12.42-8.93-18.28-12.55-5.27-3.26-14.09-8.55-19.86-10.32-3.38-1.04-7.34-.68-11.3-2.09-7.19-2.56-9.95-7.78-15.87-11.4-7.39-4.53-20.92-3.59-28.94-1.1-3.93,1.22-6.17,1.67-8.58,5.37-2.48,3.81-1.04,5.13-1.25,9.09-.17,3.21-1.99,5.5-.52,8.72,3.7,8.09,12.08,10.33,16.87,18.6,4.32,7.46,3.73,15.66,6.76,22.44.48,1.08,2.3,4.88,3.7,4.33,2.2-.87,4.87-3.35,7.36-4.2,1.49-1.29,1.52-5.72,3.61-7.49,1.32-1.12,2.29-.86,2.79.91.21.76-1.41,2.42-1.89,3.59-.61,1.48-.48,3.36-1.37,4.77-8.4,5.17-18.88,8.85-16.91,20.76,4.48,27.21,35.22,41.99,56.53,55.2,13.57,8.41,28.41,18.13,42.32,25.68,3.84,2.08,7.81,2.97,12.13,1.99.53-.12,3.82-1.04,4.03-1.17.41-.25.39-.44.45-.87-3.23-2.04-11.13-13.65-14.2-13.98-1.28-.14-3.29.28-5.05.1-12.6-1.29-34.06-14.17-44.02-22.06-1.59-1.26-8.56-6.9-9.01-8.21-.61-1.8.54-2.75,2.21-1.86,2.84,1.52,8.12,7.01,11.25,9.33,6.67,4.96,33.67,21.17,41.34,19.43.53-.12,1.38-.45.78-1.04-2.72-2.2-5.01-7.64-7.76-9.43-.48-.31-7.03-1.41-8.48-1.88-8.75-2.82-25.99-12.27-31.66-19.36-1.71-2.14,0-3.64,1.57-2.96,1.05.46,5.4,4.78,6.88,5.92,6.15,4.73,13.78,9.42,21.03,12.23.73.28,5.92,1.99,6.25,1.95,1.11-.14.61-.68.29-1.27-3.81-7.15-7.22-6.45-13.34-9.57-3.42-1.74-12.9-7.54-15.36-10.08-1.19-1.23-2.33-2.76-.03-3.41,1.33-.38,7.86,5.11,9.57,6.21,2.38,1.54,12.88,7.93,15.24,7.16.89-.29,4.81-4.33,4.98-5.32.32-1.89-3.07-10.41-2.46-11.54,1.07-1.99,13.71-4.96,16.51-5.42,28.48-4.68,42.61,11.75,64.86,25.49,1.75,1.08,11.95,7.6,13.11,6.68s1.82-8.27.91-9.34c-10.34-5.61-21.18-10.42-31.35-16.24-.99-1.46.57-3.01,2.11-2.32,8.85,4.53,17.64,9.22,26.66,13.4.62.29,2.52,1.73,2.68,1.74.88.03,1.42-7.44.91-8.13-.3-.4-6.64-3.24-7.71-3.7-3.01-1.32-6.25-2.52-9.32-3.73-2.48-.98-11.98-3.68-13.37-4.74-2.06-1.56-1.25-3.09,1.13-3.17,5.49,2.24,11.12,4.09,16.63,6.29,3.19,1.28,11.51,5.82,14.14,6.1,2.19.24,9.06-3.29,9.52-5.52s-4.49-3.33-6.29-3.93c-14.15-4.67-29.37-7.14-42.4-14.8-11.07-6.5-19.17-18.04-28.77-26.41-1.73-1.51-11.93-7.93-12.18-8.63-.09-.26.68-1.57.92-1.76,1.86-1.43,6.39,3.91,8.34,3.31,3.46-2.7,9.28-8.11,13.55-8.96,2.43-.48,12.08,2.22,15.5,2.48,2.02.16,3.48.25,1.4-1.43-4.05-3.26-12.04-7-16.91-9.19-1.26-.57-4.16-1.22-4.96-1.83-1.63-1.25-1.46-2.82.73-3.08.95-.11,11.59,4.76,13.18,5.6,5.52,2.91,13.98,9.9,19.57,10.43.5.05,5.98.26,6.03-.04.11-.69-4.91-3.75-5.83-4.34-7.51-4.85-16.36-9.95-24.43-13.78-1.53-.73-9.61-3.7-10.01-4.34-2.3-3.66,4.08-1.65,5.39-1.2,9.73,3.33,20.92,10.67,29.78,16.13,2.83,1.74,8.92,6.59,11.4,7.5,1.36.5,2.24.08,3.04-1.04-4.08-3.39-7.81-8.35-11.95-11.53-6.21-4.77-20.33-12.04-27.71-15.83-4.58-2.35-9.51-3.86-14.18-6.01-1.03-1.07-.34-2.28.9-2.73.97-.35,10.29,3.67,11.86,4.41,9,4.23,17.53,9.87,26.45,14.29.66.2,3.13-1.39,3.17-1.56ZM198.69,362.14c.32-1.19.69-5.91-.6-6.45-.81-.34-8.95,1.59-9.24,2.32l8.7,5.86c.58.4,1.04-1.35,1.14-1.73Z"/>
      <path class="cls-2" d="M225.83,369.16c-1.48,2.87-4.54-2.13-5.42-2.23-1.61-.18-4.54,3.65-7.82,1.41-6.63-4.54-.02-12.66,5.41-9.6,2.4,1.35,2.14,2.95,3.46,4.69.82,1.09,5.17,4.17,4.36,5.73ZM217.62,363.8c.45-3.96-6.27-1.96-4,1.12,1.09,1.48,3.79.81,4-1.12Z"/>
    </g>
  </g>
  <text class="cls-1" transform="translate(137.55 743.44)"><tspan x="0" y="0">RAA</tspan></text>
</svg>